<svg width="143" height="45" viewBox="0 0 143 45" fill="none" xmlns="http://www.w3.org/2000/svg">
<path d="M67.517 31V13.5455H74.4034C75.7216 13.5455 76.8466 13.7812 77.7784 14.2528C78.7159 14.7187 79.429 15.3807 79.9176 16.2386C80.4119 17.0909 80.6591 18.0937 80.6591 19.2472C80.6591 20.4062 80.4091 21.4034 79.9091 22.2386C79.4091 23.0682 78.6847 23.7045 77.7358 24.1477C76.7926 24.5909 75.6506 24.8125 74.3097 24.8125H69.6989V21.8466H73.7131C74.4176 21.8466 75.0028 21.75 75.4688 21.5568C75.9347 21.3636 76.2813 21.0739 76.5085 20.6875C76.7415 20.3011 76.858 19.821 76.858 19.2472C76.858 18.6676 76.7415 18.179 76.5085 17.7812C76.2813 17.3835 75.9318 17.0824 75.4602 16.8778C74.9943 16.6676 74.4063 16.5625 73.696 16.5625H71.2074V31H67.517ZM76.9432 23.0568L81.2812 31H77.2074L72.9631 23.0568H76.9432ZM86.2756 31H82.321L88.3466 13.5455H93.1023L99.1193 31H95.1648L90.7926 17.5341H90.6562L86.2756 31ZM86.0284 24.1392H95.3693V27.0199H86.0284V24.1392ZM98.4226 16.5881V13.5455H112.758V16.5881H107.414V31H103.766V16.5881H98.4226ZM118.809 13.5455V31H115.119V13.5455H118.809ZM137.885 22.2727C137.885 24.1761 137.524 25.7955 136.803 27.1307C136.087 28.4659 135.109 29.4858 133.871 30.1903C132.638 30.8892 131.251 31.2386 129.712 31.2386C128.161 31.2386 126.768 30.8864 125.536 30.1818C124.303 29.4773 123.328 28.4574 122.612 27.1222C121.896 25.7869 121.538 24.1705 121.538 22.2727C121.538 20.3693 121.896 18.75 122.612 17.4148C123.328 16.0795 124.303 15.0625 125.536 14.3636C126.768 13.6591 128.161 13.3068 129.712 13.3068C131.251 13.3068 132.638 13.6591 133.871 14.3636C135.109 15.0625 136.087 16.0795 136.803 17.4148C137.524 18.75 137.885 20.3693 137.885 22.2727ZM134.143 22.2727C134.143 21.0398 133.959 20 133.589 19.1534C133.226 18.3068 132.712 17.6648 132.047 17.2273C131.382 16.7898 130.604 16.571 129.712 16.571C128.82 16.571 128.041 16.7898 127.376 17.2273C126.712 17.6648 126.195 18.3068 125.825 19.1534C125.462 20 125.28 21.0398 125.28 22.2727C125.28 23.5057 125.462 24.5455 125.825 25.392C126.195 26.2386 126.712 26.8807 127.376 27.3182C128.041 27.7557 128.82 27.9744 129.712 27.9744C130.604 27.9744 131.382 27.7557 132.047 27.3182C132.712 26.8807 133.226 26.2386 133.589 25.392C133.959 24.5455 134.143 23.5057 134.143 22.2727Z" fill="#534F5A"/>
<path d="M50.1321 20.8196L30.383 1.0705C28.8272 -0.485259 26.1649 0.617247 26.1649 2.81817V23.0042L50.1321 20.8196Z" fill="url(#paint0_linear_305_1673)"/>
<mask id="mask0_305_1673" style="mask-type:luminance" maskUnits="userSpaceOnUse" x="26" y="10" width="25" height="14">
<path d="M39.9561 10.6461L50.1319 20.8197L26.1646 23.0043V11.5036L39.9561 10.6461Z" fill="white"/>
</mask>
<g mask="url(#mask0_305_1673)">
<g filter="url(#filter0_d_305_1673)">
<path d="M50.1319 20.8198C49.5724 20.2604 48.8007 19.9153 47.9473 19.9153H29.2537C27.5468 19.9153 26.1646 21.2976 26.1646 23.0044V41.698C26.1646 43.4048 27.5468 44.7871 29.2537 44.7871C30.9605 44.7871 32.3427 43.4048 32.3427 41.698V26.0935H47.9473C49.6541 26.0935 51.0363 24.7112 51.0363 23.0044C51.0363 22.151 50.6913 21.3792 50.1319 20.8198Z" fill="url(#paint1_linear_305_1673)"/>
</g>
</g>
<path d="M50.1341 20.8703C49.5747 20.3109 48.8029 19.9658 47.9495 19.9658H29.2559C27.5491 19.9658 26.1669 21.348 26.1669 23.0549V41.7485C26.1669 43.4553 27.5491 44.8375 29.2559 44.8375C30.9628 44.8375 32.345 43.4553 32.345 41.7485V26.1439H47.9495C49.6564 26.1439 51.0386 24.7617 51.0386 23.0549C51.0386 22.2015 50.6935 21.4297 50.1341 20.8703Z" fill="url(#paint2_linear_305_1673)"/>
<path d="M38.5208 19.9659C36.9406 19.9659 35.3583 20.5682 34.1516 21.7748C32.945 22.9814 32.3427 24.5617 32.3427 26.144V41.7485C32.3427 43.4554 30.9605 44.8376 29.2537 44.8376C27.5468 44.8376 26.1646 43.4554 26.1646 41.7485V23.0549C26.1646 21.3481 27.5468 19.9659 29.2537 19.9659H38.5208Z" fill="url(#paint3_linear_305_1673)"/>
<path d="M0.906477 24.0179L20.6556 43.767C22.2114 45.3228 24.8737 44.2203 24.8737 42.0194V21.8333L0.906477 24.0179Z" fill="url(#paint4_linear_305_1673)"/>
<mask id="mask1_305_1673" style="mask-type:luminance" maskUnits="userSpaceOnUse" x="0" y="21" width="25" height="14">
<path d="M11.0824 34.1915L0.906721 24.0178L24.874 21.8332V33.334L11.0824 34.1915Z" fill="white"/>
</mask>
<g mask="url(#mask1_305_1673)">
<g filter="url(#filter1_d_305_1673)">
<path d="M0.906723 24.0177C1.46614 24.5771 2.23789 24.9222 3.09132 24.9222H21.7849C23.4917 24.9222 24.874 23.54 24.874 21.8331V3.13953C24.874 1.43269 23.4917 0.0504742 21.7849 0.0504742C20.0781 0.0504742 18.6959 1.43269 18.6959 3.13953V18.7441H3.09132C1.38447 18.7441 0.00226021 20.1263 0.00226021 21.8331C0.00226021 22.6865 0.347303 23.4583 0.906723 24.0177Z" fill="url(#paint5_linear_305_1673)"/>
</g>
</g>
<path d="M0.904495 23.9672C1.46391 24.5267 2.23567 24.8717 3.08909 24.8717H21.7827C23.4895 24.8717 24.8717 23.4895 24.8717 21.7826V3.08906C24.8717 1.38221 23.4895 -1.90735e-06 21.7827 -1.90735e-06C20.0758 -1.90735e-06 18.6936 1.38221 18.6936 3.08906V18.6936H3.08909C1.38225 18.6936 3.24249e-05 20.0758 3.24249e-05 21.7826C3.24249e-05 22.6361 0.345076 23.4078 0.904495 23.9672Z" fill="url(#paint6_linear_305_1673)"/>
<path d="M12.5177 24.8716C14.098 24.8716 15.6803 24.2693 16.8869 23.0627C18.0936 21.8561 18.6958 20.2758 18.6958 18.6935V3.08899C18.6958 1.38215 20.0781 -6.29425e-05 21.7849 -6.29425e-05C23.4917 -6.29425e-05 24.874 1.38215 24.874 3.08899V21.7826C24.874 23.4894 23.4917 24.8716 21.7849 24.8716H12.5177Z" fill="url(#paint7_linear_305_1673)"/>
<defs>
<filter id="filter0_d_305_1673" x="15.2746" y="1.76534" width="53.9117" height="53.9117" filterUnits="userSpaceOnUse" color-interpolation-filters="sRGB">
<feFlood flood-opacity="0" result="BackgroundImageFix"/>
<feColorMatrix in="SourceAlpha" type="matrix" values="0 0 0 0 0 0 0 0 0 0 0 0 0 0 0 0 0 0 127 0" result="hardAlpha"/>
<feOffset dx="3.63" dy="-3.63"/>
<feGaussianBlur stdDeviation="7.26"/>
<feColorMatrix type="matrix" values="0 0 0 0 0.129412 0 0 0 0 0.0156863 0 0 0 0 0.109804 0 0 0 0.4 0"/>
<feBlend mode="normal" in2="BackgroundImageFix" result="effect1_dropShadow_305_1673"/>
<feBlend mode="normal" in="SourceGraphic" in2="effect1_dropShadow_305_1673" result="shape"/>
</filter>
<filter id="filter1_d_305_1673" x="-10.8877" y="-18.0995" width="53.9117" height="53.9117" filterUnits="userSpaceOnUse" color-interpolation-filters="sRGB">
<feFlood flood-opacity="0" result="BackgroundImageFix"/>
<feColorMatrix in="SourceAlpha" type="matrix" values="0 0 0 0 0 0 0 0 0 0 0 0 0 0 0 0 0 0 127 0" result="hardAlpha"/>
<feOffset dx="3.63" dy="-3.63"/>
<feGaussianBlur stdDeviation="7.26"/>
<feColorMatrix type="matrix" values="0 0 0 0 0.129412 0 0 0 0 0.0156863 0 0 0 0 0.109804 0 0 0 0.4 0"/>
<feBlend mode="normal" in2="BackgroundImageFix" result="effect1_dropShadow_305_1673"/>
<feBlend mode="normal" in="SourceGraphic" in2="effect1_dropShadow_305_1673" result="shape"/>
</filter>
<linearGradient id="paint0_linear_305_1673" x1="50.1301" y1="11.6729" x2="26.1628" y2="11.6729" gradientUnits="userSpaceOnUse">
<stop stop-color="#3D33FF"/>
<stop offset="0.99" stop-color="#925CFF"/>
</linearGradient>
<linearGradient id="paint1_linear_305_1673" x1="50.7571" y1="31.9753" x2="-4.67886" y2="32.944" gradientUnits="userSpaceOnUse">
<stop stop-color="#18DBD0"/>
<stop offset="1" stop-color="#AA33FF"/>
</linearGradient>
<linearGradient id="paint2_linear_305_1673" x1="50.7594" y1="32.0258" x2="-4.6766" y2="32.9945" gradientUnits="userSpaceOnUse">
<stop stop-color="#18DBD0"/>
<stop offset="1" stop-color="#AA33FF"/>
</linearGradient>
<linearGradient id="paint3_linear_305_1673" x1="32.3565" y1="21.0784" x2="31.665" y2="43.3357" gradientUnits="userSpaceOnUse">
<stop stop-color="#3D33FF"/>
<stop offset="0.99" stop-color="#925CFF"/>
</linearGradient>
<linearGradient id="paint4_linear_305_1673" x1="0.908518" y1="33.1646" x2="24.8758" y2="33.1646" gradientUnits="userSpaceOnUse">
<stop stop-color="#3D33FF"/>
<stop offset="0.99" stop-color="#925CFF"/>
</linearGradient>
<linearGradient id="paint5_linear_305_1673" x1="0.281445" y1="12.8622" x2="55.7174" y2="11.8935" gradientUnits="userSpaceOnUse">
<stop stop-color="#18DBD0"/>
<stop offset="1" stop-color="#AA33FF"/>
</linearGradient>
<linearGradient id="paint6_linear_305_1673" x1="0.279217" y1="12.8117" x2="55.7152" y2="11.843" gradientUnits="userSpaceOnUse">
<stop stop-color="#18DBD0"/>
<stop offset="1" stop-color="#AA33FF"/>
</linearGradient>
<linearGradient id="paint7_linear_305_1673" x1="18.682" y1="23.7591" x2="19.3736" y2="1.50186" gradientUnits="userSpaceOnUse">
<stop stop-color="#3D33FF"/>
<stop offset="0.99" stop-color="#925CFF"/>
</linearGradient>
</defs>
</svg>
