<svg width="636" height="121" viewBox="0 0 636 121" fill="none" xmlns="http://www.w3.org/2000/svg">
<path d="M171.068 93V23.1818H217.295V35.3523H185.83V51.9886H214.227V64.1591H185.83V93H171.068ZM241.986 23.1818V93H227.224V23.1818H241.986ZM312.528 23.1818V93H299.778L269.403 49.0568H268.892V93H254.131V23.1818H267.085L297.222 67.0909H297.835V23.1818H312.528ZM371.02 45.75C370.543 44.0909 369.872 42.625 369.009 41.3523C368.145 40.0568 367.088 38.9659 365.838 38.0795C364.611 37.1705 363.202 36.4773 361.611 36C360.043 35.5227 358.304 35.2841 356.395 35.2841C352.827 35.2841 349.69 36.1705 346.986 37.9432C344.304 39.7159 342.213 42.2955 340.713 45.6818C339.213 49.0455 338.463 53.1591 338.463 58.0227C338.463 62.8864 339.202 67.0227 340.679 70.4318C342.156 73.8409 344.247 76.4432 346.952 78.2386C349.656 80.0114 352.849 80.8977 356.531 80.8977C359.872 80.8977 362.724 80.3068 365.088 79.125C367.474 77.9205 369.293 76.2273 370.543 74.0455C371.815 71.8636 372.452 69.2841 372.452 66.3068L375.452 66.75H357.452V55.6364H386.668V64.4318C386.668 70.5682 385.372 75.8409 382.781 80.25C380.19 84.6364 376.622 88.0227 372.077 90.4091C367.531 92.7727 362.327 93.9545 356.463 93.9545C349.918 93.9545 344.168 92.5114 339.213 89.625C334.259 86.7159 330.395 82.5909 327.622 77.25C324.872 71.8864 323.497 65.5227 323.497 58.1591C323.497 52.5 324.315 47.4545 325.952 43.0227C327.611 38.5682 329.929 34.7955 332.906 31.7045C335.884 28.6136 339.349 26.2614 343.304 24.6477C347.259 23.0341 351.543 22.2273 356.156 22.2273C360.111 22.2273 363.793 22.8068 367.202 23.9659C370.611 25.1023 373.634 26.7159 376.27 28.8068C378.929 30.8977 381.099 33.3864 382.781 36.2727C384.463 39.1364 385.543 42.2955 386.02 45.75H371.02ZM397.756 93V23.1818H425.301C430.574 23.1818 435.074 24.125 438.801 26.0114C442.551 27.875 445.403 30.5227 447.358 33.9545C449.335 37.3636 450.324 41.375 450.324 45.9886C450.324 50.625 449.324 54.6136 447.324 57.9545C445.324 61.2727 442.426 63.8182 438.631 65.5909C434.858 67.3636 430.29 68.25 424.926 68.25H406.483V56.3864H422.54C425.358 56.3864 427.699 56 429.562 55.2273C431.426 54.4545 432.813 53.2955 433.722 51.75C434.653 50.2045 435.119 48.2841 435.119 45.9886C435.119 43.6705 434.653 41.7159 433.722 40.125C432.813 38.5341 431.415 37.3295 429.528 36.5114C427.665 35.6705 425.313 35.25 422.472 35.25H412.517V93H397.756ZM435.46 61.2273L452.812 93H436.517L419.54 61.2273H435.46ZM524.915 58.0909C524.915 65.7045 523.472 72.1818 520.585 77.5227C517.722 82.8636 513.813 86.9432 508.858 89.7614C503.926 92.5568 498.381 93.9545 492.222 93.9545C486.017 93.9545 480.449 92.5455 475.517 89.7273C470.585 86.9091 466.688 82.8295 463.824 77.4886C460.96 72.1477 459.528 65.6818 459.528 58.0909C459.528 50.4773 460.96 44 463.824 38.6591C466.688 33.3182 470.585 29.25 475.517 26.4545C480.449 23.6364 486.017 22.2273 492.222 22.2273C498.381 22.2273 503.926 23.6364 508.858 26.4545C513.813 29.25 517.722 33.3182 520.585 38.6591C523.472 44 524.915 50.4773 524.915 58.0909ZM509.949 58.0909C509.949 53.1591 509.21 49 507.733 45.6136C506.278 42.2273 504.222 39.6591 501.562 37.9091C498.903 36.1591 495.79 35.2841 492.222 35.2841C488.653 35.2841 485.54 36.1591 482.881 37.9091C480.222 39.6591 478.153 42.2273 476.676 45.6136C475.222 49 474.494 53.1591 474.494 58.0909C474.494 63.0227 475.222 67.1818 476.676 70.5682C478.153 73.9545 480.222 76.5227 482.881 78.2727C485.54 80.0227 488.653 80.8977 492.222 80.8977C495.79 80.8977 498.903 80.0227 501.562 78.2727C504.222 76.5227 506.278 73.9545 507.733 70.5682C509.21 67.1818 509.949 63.0227 509.949 58.0909ZM548.94 93L528.963 23.1818H545.088L556.645 71.6932H557.224L569.974 23.1818H583.781L596.497 71.7955H597.111L608.668 23.1818H624.793L604.815 93H590.429L577.134 47.3523H576.588L563.327 93H548.94Z" fill="#534F5A"/>
<path d="M134.17 56.7206L81.3149 3.86536C77.1511 -0.298362 70.0258 2.65231 70.0258 8.54273V62.5673L134.17 56.7206Z" fill="url(#paint0_linear_60_634)"/>
<mask id="mask0_60_634" style="mask-type:luminance" maskUnits="userSpaceOnUse" x="70" y="29" width="65" height="34">
<path d="M106.936 29.4932L134.17 56.7213L70.0252 62.568V31.7881L106.936 29.4932Z" fill="white"/>
</mask>
<g mask="url(#mask0_60_634)">
<g filter="url(#filter0_d_60_634)">
<path d="M134.17 56.7209C132.672 55.2237 130.607 54.3003 128.323 54.3003H78.2926C73.7245 54.3003 70.0252 57.9996 70.0252 62.5676V112.598C70.0252 117.166 73.7245 120.865 78.2926 120.865C82.8606 120.865 86.5599 117.166 86.5599 112.598V70.835H128.323C132.891 70.835 136.59 67.1357 136.59 62.5676C136.59 60.2836 135.667 58.2181 134.17 56.7209Z" fill="url(#paint1_linear_60_634)"/>
</g>
</g>
<path d="M134.176 56.8564C132.678 55.3592 130.613 54.4358 128.329 54.4358H78.2987C73.7306 54.4358 70.0313 58.1351 70.0313 62.7031V112.733C70.0313 117.301 73.7306 121.001 78.2987 121.001C82.8667 121.001 86.566 117.301 86.566 112.733V70.9705H128.329C132.897 70.9705 136.596 67.2712 136.596 62.7031C136.596 60.4191 135.673 58.3536 134.176 56.8564Z" fill="url(#paint2_linear_60_634)"/>
<path d="M103.095 54.4358C98.8653 54.4358 94.6305 56.0477 91.4012 59.2771C88.1718 62.5064 86.5599 66.7357 86.5599 70.9705V112.733C86.5599 117.301 82.8606 121.001 78.2925 121.001C73.7245 121.001 70.0252 117.301 70.0252 112.733V62.7031C70.0252 58.1351 73.7245 54.4358 78.2925 54.4358H103.095Z" fill="url(#paint3_linear_60_634)"/>
<path d="M2.42622 65.2798L55.2815 118.135C59.4452 122.299 66.5706 119.348 66.5706 113.458V59.4331L2.42622 65.2798Z" fill="url(#paint4_linear_60_634)"/>
<mask id="mask1_60_634" style="mask-type:luminance" maskUnits="userSpaceOnUse" x="2" y="59" width="65" height="34">
<path d="M29.6603 92.5076L2.42671 65.2794L66.571 59.4327V90.2126L29.6603 92.5076Z" fill="white"/>
</mask>
<g mask="url(#mask1_60_634)">
<g filter="url(#filter1_d_60_634)">
<path d="M2.42671 65.2796C3.92391 66.7767 5.98937 67.7002 8.27341 67.7002H58.3037C62.8718 67.7002 66.571 64.0009 66.571 59.4329V9.40257C66.571 4.83449 62.8718 1.13522 58.3037 1.13522C53.7356 1.13522 50.0364 4.83449 50.0364 9.40257V51.1655H8.27341C3.70534 51.1655 0.00607313 54.8648 0.00607313 59.4329C0.00607313 61.7169 0.92952 63.7824 2.42671 65.2796Z" fill="url(#paint5_linear_60_634)"/>
</g>
</g>
<path d="M2.42049 65.1441C3.91768 66.6412 5.98315 67.5647 8.26719 67.5647H58.2975C62.8655 67.5647 66.5648 63.8654 66.5648 59.2974V9.26707C66.5648 4.69899 62.8655 0.999721 58.2975 0.999721C53.7294 0.999721 50.0301 4.69899 50.0301 9.26707V51.03H8.26719C3.69911 51.03 -0.000152459 54.7293 -0.000152459 59.2974C-0.000152459 61.5814 0.923295 63.6469 2.42049 65.1441Z" fill="url(#paint6_linear_60_634)"/>
<path d="M33.5017 67.5647C37.731 67.5647 41.9657 65.9528 45.1951 62.7234C48.4244 59.4941 50.0364 55.2648 50.0364 51.03V9.26707C50.0364 4.69899 53.7356 0.999721 58.3037 0.999721C62.8718 0.999721 66.571 4.69899 66.571 9.26707V59.2974C66.571 63.8654 62.8718 67.5647 58.3037 67.5647H33.5017Z" fill="url(#paint7_linear_60_634)"/>
<defs>
<filter id="filter0_d_60_634" x="59.1352" y="36.1503" width="95.6049" height="95.6049" filterUnits="userSpaceOnUse" color-interpolation-filters="sRGB">
<feFlood flood-opacity="0" result="BackgroundImageFix"/>
<feColorMatrix in="SourceAlpha" type="matrix" values="0 0 0 0 0 0 0 0 0 0 0 0 0 0 0 0 0 0 127 0" result="hardAlpha"/>
<feOffset dx="3.63" dy="-3.63"/>
<feGaussianBlur stdDeviation="7.26"/>
<feColorMatrix type="matrix" values="0 0 0 0 0.129412 0 0 0 0 0.0156863 0 0 0 0 0.109804 0 0 0 0.4 0"/>
<feBlend mode="normal" in2="BackgroundImageFix" result="effect1_dropShadow_60_634"/>
<feBlend mode="normal" in="SourceGraphic" in2="effect1_dropShadow_60_634" result="shape"/>
</filter>
<filter id="filter1_d_60_634" x="-10.8839" y="-17.0147" width="95.6049" height="95.6049" filterUnits="userSpaceOnUse" color-interpolation-filters="sRGB">
<feFlood flood-opacity="0" result="BackgroundImageFix"/>
<feColorMatrix in="SourceAlpha" type="matrix" values="0 0 0 0 0 0 0 0 0 0 0 0 0 0 0 0 0 0 127 0" result="hardAlpha"/>
<feOffset dx="3.63" dy="-3.63"/>
<feGaussianBlur stdDeviation="7.26"/>
<feColorMatrix type="matrix" values="0 0 0 0 0.129412 0 0 0 0 0.0156863 0 0 0 0 0.109804 0 0 0 0.4 0"/>
<feBlend mode="normal" in2="BackgroundImageFix" result="effect1_dropShadow_60_634"/>
<feBlend mode="normal" in="SourceGraphic" in2="effect1_dropShadow_60_634" result="shape"/>
</filter>
<linearGradient id="paint0_linear_60_634" x1="134.165" y1="32.241" x2="70.0204" y2="32.241" gradientUnits="userSpaceOnUse">
<stop stop-color="#3D33FF"/>
<stop offset="0.99" stop-color="#925CFF"/>
</linearGradient>
<linearGradient id="paint1_linear_60_634" x1="135.843" y1="86.5768" x2="-12.5222" y2="89.1694" gradientUnits="userSpaceOnUse">
<stop stop-color="#18DBD0"/>
<stop offset="1" stop-color="#AA33FF"/>
</linearGradient>
<linearGradient id="paint2_linear_60_634" x1="135.849" y1="86.7123" x2="-12.5161" y2="89.3049" gradientUnits="userSpaceOnUse">
<stop stop-color="#18DBD0"/>
<stop offset="1" stop-color="#AA33FF"/>
</linearGradient>
<linearGradient id="paint3_linear_60_634" x1="86.5969" y1="57.4133" x2="84.7461" y2="116.981" gradientUnits="userSpaceOnUse">
<stop stop-color="#3D33FF"/>
<stop offset="0.99" stop-color="#925CFF"/>
</linearGradient>
<linearGradient id="paint4_linear_60_634" x1="2.43169" y1="89.7595" x2="66.576" y2="89.7595" gradientUnits="userSpaceOnUse">
<stop stop-color="#3D33FF"/>
<stop offset="0.99" stop-color="#925CFF"/>
</linearGradient>
<linearGradient id="paint5_linear_60_634" x1="0.753265" y1="35.4237" x2="149.118" y2="32.8311" gradientUnits="userSpaceOnUse">
<stop stop-color="#18DBD0"/>
<stop offset="1" stop-color="#AA33FF"/>
</linearGradient>
<linearGradient id="paint6_linear_60_634" x1="0.74704" y1="35.2882" x2="149.112" y2="32.6956" gradientUnits="userSpaceOnUse">
<stop stop-color="#18DBD0"/>
<stop offset="1" stop-color="#AA33FF"/>
</linearGradient>
<linearGradient id="paint7_linear_60_634" x1="49.9994" y1="64.5872" x2="51.8501" y2="5.01935" gradientUnits="userSpaceOnUse">
<stop stop-color="#3D33FF"/>
<stop offset="0.99" stop-color="#925CFF"/>
</linearGradient>
</defs>
</svg>
